# xmcd
#
# Track frame offsets: 
#        150
#        17143
#        31117
#        45199
#        61919
#        78752
#        96191
#        111868
#        130316
#        146613
#        160315
#        166622
#        178249
#
# Disc length: 2567 seconds
#
# Revision: 1
# Processed by: cddbd v1.5.2PL0 Copyright (c) Steve Scherf et al.
# Submitted via: ExactAudioCopy v1.0b1
#
DISCID=9b0a050d
DTITLE=Gunter Gabriel - Waschecht
DYEAR=1982
DGENRE=Country
TTITLE0=Komm nach Haus und wein' dich aus bei Daddy
TTITLE1='n Typ wie Elvis
TTITLE2=So kommst du niemals in den Himmel
TTITLE3=Ich tanze nie mehr eng
TTITLE4=Daran gewöhne ich mich nie
TTITLE5=Schick'n weg
TTITLE6=Hurra, wir leben noch
TTITLE7=Das Johnny-Cash-Konzert
TTITLE8=Auch John Wayne hat manchmal geweint
TTITLE9=Der Mann hinterm Pflug
TTITLE10=Kiss Me, I'm German (Klönschnack in Hertha Fiedlers "Weltlate
TTITLE10=rne")
TTITLE11=Hier ist mein Land
TTITLE12=Deutschland ist ...
EXTD=YEAR: 1982
EXTT0=
EXTT1=
EXTT2=
EXTT3=
EXTT4=
EXTT5=
EXTT6=
EXTT7=
EXTT8=
EXTT9=
EXTT10=
EXTT11=
EXTT12=
PLAYORDER=
